<?xml version="1.0" encoding="UTF-8" standalone="no"?>
<!-- Created with Inkscape (http://www.inkscape.org/) -->

<svg
   version="1.1"
   id="svg1"
   width="878"
   height="390"
   viewBox="0 0 878 390"
   sodipodi:docname="lzy_logo.svg"
   inkscape:version="1.4.2 (f4327f4, 2025-05-13)"
   xmlns:inkscape="http://www.inkscape.org/namespaces/inkscape"
   xmlns:sodipodi="http://sodipodi.sourceforge.net/DTD/sodipodi-0.dtd"
   xmlns="http://www.w3.org/2000/svg"
   xmlns:svg="http://www.w3.org/2000/svg">
  <defs
     id="defs1" />
  <sodipodi:namedview
     id="namedview1"
     pagecolor="#ffffff"
     bordercolor="#000000"
     borderopacity="0.25"
     inkscape:showpageshadow="2"
     inkscape:pageopacity="0.0"
     inkscape:pagecheckerboard="0"
     inkscape:deskcolor="#d1d1d1"
     inkscape:zoom="0.89863326"
     inkscape:cx="582.55133"
     inkscape:cy="153.56654"
     inkscape:window-width="1784"
     inkscape:window-height="900"
     inkscape:window-x="1441"
     inkscape:window-y="80"
     inkscape:window-maximized="0"
     inkscape:current-layer="g1" />
  <g
     inkscape:groupmode="layer"
     inkscape:label="Image"
     id="g1">
    <path
       style="fill:#000000"
       d="m 228.83032,314.67621 c -1.71648,-0.74706 -4.41648,-3.05691 -6,-5.13301 l -2.87912,-3.77473 V 200.19063 c 0,-103.779346 0.0341,-105.635676 2,-108.973306 1.1,-1.8675 3.2705,-4.3425 4.82333,-5.5 2.74884,-2.049 3.78248,-2.10453 39.17667,-2.10453 35.1569,0 36.44423,0.0679 39.11488,2.06179 1.51885,1.13399 3.68935,3.30427 4.82333,4.82286 2.0323,2.72158 2.06564,3.8043 2.33088,75.688206 l 0.2691,72.92714 h 41.51302 c 32.79901,0 42.19829,0.28632 44.7776,1.36403 1.79552,0.75021 4.48106,2.80974 5.96788,4.57672 l 2.70331,3.2127 v 29.07888 29.07889 l -2.55169,3.34544 c -1.40343,1.83999 -3.85609,4.01997 -5.45034,4.84439 -2.50865,1.29727 -13.97175,1.49368 -85.19831,1.45981 -67.07494,-0.0319 -82.877,-0.29042 -85.42054,-1.39744 z m 171.16863,-7.20944 2.45225,-2.64603 v -26.79821 -26.79821 l -2.41272,-2.80577 -2.41272,-2.80576 -45.33728,-0.5 -45.33728,-0.5 -0.23825,-74.5 c -0.17147,-53.61747 -0.55932,-75.112186 -1.38369,-76.684046 -0.62999,-1.20123 -2.34533,-2.68107 -3.81188,-3.28853 -1.8172,-0.75271 -13.55039,-1.01259 -36.83971,-0.81595 -34.04691,0.28747 -34.18169,0.29696 -36.44987,2.56613 l -2.2766,2.27759 -0.29474,101.722396 c -0.16211,55.94733 -0.0319,103.56905 0.28933,105.82606 0.32123,2.25701 1.4839,5.06951 2.58369,6.25 l 1.99963,2.14635 h 83.50879 83.5088 z M 281.4512,296.61279 c 0,-0.825 0.675,-1.5 1.5,-1.5 0.825,0 1.5,0.675 1.5,1.5 0,0.825 -0.675,1.5 -1.5,1.5 -0.825,0 -1.5,-0.675 -1.5,-1.5 z m 13.23467,-4.99732 c -1.79594,-0.78046 -3.5426,-2.14155 -3.88146,-3.02462 -0.33887,-0.88308 -0.14608,-2.63724 0.42842,-3.89813 0.6849,-1.5032 2.46841,-2.65395 5.18001,-3.34222 3.78125,-0.95979 4.34543,-0.83973 6.58691,1.40175 1.3483,1.3483 2.45145,3.24614 2.45145,4.21743 0,0.97129 -0.91753,2.75084 -2.03896,3.95455 -1.12142,1.20371 -2.80892,2.17095 -3.75,2.14942 -0.94107,-0.0215 -3.18044,-0.67771 -4.97637,-1.45818 z m 86.33009,-0.3979 c -0.3043,-0.49236 0.0752,-1.13636 0.84322,-1.43109 0.76807,-0.29474 1.66548,-0.26689 1.99425,0.0619 0.32878,0.32877 0.59777,0.97276 0.59777,1.4311 0,0.45833 -0.64844,0.83333 -1.44098,0.83333 -0.79254,0 -1.68996,-0.40285 -1.99426,-0.89522 z m -113.58951,-5.66988 c -0.53639,-1.4108 -0.97525,-2.90736 -0.97525,-3.32569 0,-0.41832 1.08817,-1.78287 2.41816,-3.03233 1.90962,-1.79399 3.0734,-2.12782 5.53389,-1.58741 1.71364,0.37638 3.8393,1.78865 4.72369,3.13839 1.28033,1.95404 1.37967,2.95511 0.48755,4.9131 -0.97467,2.13916 -1.77684,2.45904 -6.1666,2.45904 -4.49662,0 -5.1524,-0.27936 -6.02144,-2.5651 z m 56.48363,1.49857 c -0.36253,-0.58659 -0.44468,-1.281 -0.18255,-1.54313 0.26212,-0.26213 0.74306,0.21781 1.06875,1.06653 0.32568,0.84872 0.40783,1.54313 0.18255,1.54313 -0.22528,0 -0.70621,-0.47994 -1.06875,-1.06653 z m 22.58506,-6.85309 c -5.15596,-3.2558 -9.76908,-6.62474 -10.25137,-7.48656 -0.51733,-0.92441 -0.45129,-3.14751 0.16105,-5.42157 0.57087,-2.12005 1.98677,-4.7136 3.14644,-5.76345 1.63802,-1.48288 3.98627,-1.98766 10.52405,-2.26223 4.62855,-0.19439 9.56419,-0.0651 10.96808,0.28721 1.8724,0.46995 3.23023,2.12094 5.09596,6.19622 1.85618,4.05445 2.38774,6.51495 1.96724,9.10618 -0.31691,1.95284 -1.60651,4.65384 -2.86579,6.00223 -1.25928,1.34839 -3.50475,3.08386 -4.98994,3.8566 -1.48519,0.77275 -3.07854,1.40499 -3.54079,1.40499 -0.46225,0 -5.05896,-2.66383 -10.21493,-5.91962 z m 15.63842,-8.3696 c -0.27641,-2.08407 -1.04812,-4.44657 -1.71491,-5.25 -0.87458,-1.0538 -3.39724,-1.46078 -9.05471,-1.46078 -6.73007,0 -7.9892,0.27434 -8.87756,1.93426 -0.56935,1.06384 -1.03518,2.19179 -1.03518,2.50655 0,0.31477 3.0377,2.51942 6.75044,4.89923 3.71274,2.3798 7.42524,4.56958 8.25,4.86616 0.82476,0.29658 2.55367,-0.41599 3.84202,-1.58348 1.90577,-1.72699 2.24877,-2.82912 1.8399,-5.91194 z m -34.59454,-0.65619 c -1.19258,-0.73732 -1.15371,-1.13156 0.25,-2.53527 0.9142,-0.9142 1.66218,-2.08003 1.66218,-2.59075 0,-0.51071 -0.585,-0.92857 -1.3,-0.92857 -0.715,0 -1.80483,0.50483 -2.42186,1.12186 -0.61702,0.61702 -0.88387,1.74202 -0.59301,2.5 0.29087,0.75797 0.0832,1.37814 -0.46151,1.37814 -0.5447,0 -1.23706,-0.9434 -1.53859,-2.09645 -0.30153,-1.15305 -0.29653,-2.75239 0.0111,-3.5541 0.34049,-0.88728 1.58252,-1.33865 3.17422,-1.15355 1.72296,0.20038 3.08001,1.27892 3.97857,3.16207 1.14797,2.40586 1.14914,3.07246 0.007,4.21384 -0.85975,0.85946 -1.87333,1.03621 -2.76849,0.48278 z m -22.84274,-1.20951 c -0.68479,-0.68479 -1.24508,-2.26971 -1.24508,-3.52203 0,-1.31313 1.03751,-2.95675 2.45104,-3.88293 1.37888,-0.90348 3.3069,-1.33434 4.40762,-0.98498 1.07612,0.34155 2.19441,1.24079 2.4851,1.99831 0.29069,0.75753 0.1901,2.6529 -0.22353,4.21194 -0.58103,2.18996 -1.42045,2.90172 -3.69107,3.12969 -1.61645,0.16229 -3.49929,-0.26521 -4.18408,-0.95 z m 4.75492,-3.34508 c 0,-0.825 -0.45,-1.5 -1,-1.5 -0.55,0 -1,0.675 -1,1.5 0,0.825 0.45,1.5 1,1.5 0.55,0 1,-0.675 1,-1.5 z m 74.54271,0.5691 c -0.31644,-0.512 -0.18076,-1.17476 0.3015,-1.47282 0.48226,-0.29805 1.1646,-0.25414 1.51631,0.0976 0.35171,0.35172 0.63948,1.01448 0.63948,1.47282 0,0.45833 -0.42344,0.83333 -0.94098,0.83333 -0.51754,0 -1.19988,-0.41891 -1.51631,-0.9309 z m -117.01053,-3.60366 c -1.96677,-2.08538 -3.83987,-4.84321 -4.16247,-6.12852 -0.32259,-1.2853 -0.31287,-3.42724 0.0216,-4.75985 0.33446,-1.33261 1.80694,-3.84765 3.27218,-5.58898 2.47612,-2.94271 2.98759,-3.12235 7.25029,-2.54641 2.52243,0.34081 6.73085,1.10244 9.35204,1.69252 2.82777,0.63658 5.36937,1.93456 6.25,3.19184 0.81631,1.16544 1.48419,3.7404 1.48419,5.72215 0,2.46038 -0.71362,4.2557 -2.25,5.66052 -1.2375,1.13154 -3.70474,2.79253 -5.48277,3.69109 -1.77802,0.89855 -5.24119,1.90902 -7.69594,2.24548 -4.20411,0.57624 -4.67075,0.39166 -8.03911,-3.17984 z m 13.95934,-4.75895 c 2.19533,-1.24333 4.12992,-2.9793 4.29909,-3.85772 0.16916,-0.87841 -0.50202,-1.91457 -1.49152,-2.30257 -0.9895,-0.388 -4.24086,-1.10893 -7.22525,-1.60207 -3.71691,-0.61418 -5.84317,-0.55053 -6.75,0.20207 -0.72811,0.60428 -1.32384,2.24566 -1.32384,3.6475 0,1.40185 0.74474,3.37175 1.65499,4.37756 0.91024,1.00581 2.82274,1.82134 4.25,1.81229 1.42725,-0.009 4.39119,-1.03372 6.58653,-2.27706 z M 238.62408,234.4536 c 0.19498,-1.01244 1.02335,-1.84081 1.84082,-1.84081 0.81746,0 1.4863,0.66884 1.4863,1.4863 0,0.81747 -0.82837,1.64584 -1.84081,1.84082 -1.3364,0.25736 -1.74367,-0.14991 -1.48631,-1.48631 z m 34.27327,-5.42794 c -0.36954,-0.59793 -0.27983,-1.47919 0.19934,-1.95836 0.48013,-0.48013 1.48612,-0.4912 2.24098,-0.0247 0.75337,0.4656 1.06055,1.34686 0.68263,1.95836 -0.37792,0.61152 -1.08402,1.11183 -1.5691,1.11183 -0.48508,0 -1.18431,-0.48921 -1.55385,-1.08713 z m -24.60757,-13.36781 c -0.8426,-1.84931 -0.81077,-3.19798 0.12902,-5.46685 0.68617,-1.65654 1.83112,-3.4962 2.54433,-4.08811 0.71322,-0.59192 2.48052,-0.77912 3.92733,-0.41599 1.44681,0.36313 3.25699,1.87161 4.02263,3.35219 0.76564,1.48058 1.08743,3.13911 0.71509,3.68562 -0.37234,0.54651 -2.3051,1.9824 -4.29501,3.19087 -1.98992,1.20846 -4.13707,2.19721 -4.77144,2.19721 -0.63438,0 -1.65675,-1.10472 -2.27195,-2.45494 z m 45.16142,-10.47174 c 0,-1.43109 0.64223,-2.07332 2.07332,-2.07332 1.4311,0 1.96962,0.53852 1.73852,1.73852 -0.18414,0.95618 -1.11714,1.88918 -2.07332,2.07332 -1.2,0.2311 -1.73852,-0.30742 -1.73852,-1.73852 z m -38.228,-10.78745 c -1.5004,-0.22796 -3.6379,-1.57122 -4.75,-2.98503 -1.1121,-1.41381 -2.022,-3.84234 -2.022,-5.39674 0,-1.55441 0.90568,-3.66996 2.01263,-4.70124 1.10695,-1.03128 3.65077,-2.37781 5.65293,-2.99229 2.50402,-0.76851 4.23356,-0.79975 5.54088,-0.10008 1.04532,0.55943 2.77482,2.45093 3.84333,4.20333 1.06852,1.7524 1.94444,3.93915 1.94649,4.85945 0.002,0.92031 -1.16126,3.05781 -2.58515,4.75 -1.569,1.86465 -3.44027,3.0177 -4.75,2.9269 -1.18861,-0.0824 -3.38871,-0.33634 -4.88911,-0.5643 z m 5.87126,-6.7986 c 0.31927,-0.83201 0.046,-2.15679 -0.60732,-2.94397 -0.93144,-1.12231 -1.71102,-1.19284 -3.61188,-0.32675 -1.33323,0.60747 -2.42406,1.66975 -2.42406,2.36063 0,0.69089 0.5625,1.48313 1.25,1.76054 0.6875,0.27741 2.05162,0.53991 3.03138,0.58333 0.97977,0.0434 2.04261,-0.60178 2.36188,-1.43378 z m -9.1275,-22.84174 c -2.47797,-0.74681 -4.45719,-2.13546 -5.23525,-3.67315 -0.68807,-1.35981 -1.25766,-3.41514 -1.26577,-4.56739 -0.008,-1.15226 0.77276,-2.80536 1.73526,-3.67356 0.9625,-0.86819 4.57758,-2.8033 8.03351,-4.30023 4.93772,-2.13877 6.76067,-2.50429 8.51136,-1.70662 1.22531,0.55829 2.84538,2.16897 3.60016,3.57928 1.2442,2.32481 1.11348,3.01385 -1.40014,7.38018 -1.52486,2.64878 -3.45476,5.60346 -4.28867,6.56596 -0.83391,0.9625 -2.45895,1.71542 -3.61121,1.67315 -1.15225,-0.0423 -3.88792,-0.6172 -6.07925,-1.27762 z m 8.03291,-8.10605 c 1.02499,-1.90329 1.65459,-3.66956 1.3991,-3.92504 -0.25548,-0.25548 -2.59824,0.45912 -5.20614,1.58801 -2.6079,1.12889 -4.74163,2.63716 -4.74163,3.35171 0,0.71456 0.7875,1.50499 1.75,1.75651 0.9625,0.25153 2.46664,0.50953 3.34253,0.57333 0.87589,0.0638 2.43116,-1.44124 3.45614,-3.34452 z m 23.65881,4.21052 c -0.78836,-0.94992 -0.35804,-1.25 1.79252,-1.25 2.15056,0 2.58088,0.30008 1.79252,1.25 -0.57058,0.6875 -1.37721,1.25 -1.79252,1.25 -0.41531,0 -1.22194,-0.5625 -1.79252,-1.25 z m 4.44744,-4.20687 c -0.32568,-0.84872 -1.41627,-1.54313 -2.42354,-1.54313 -1.00726,0 -2.37138,0.54 -3.03138,1.2 -0.89306,0.89306 -1.2,0.90206 -1.2,0.0352 0,-0.64065 0.95483,-1.67582 2.12183,-2.30038 1.75396,-0.93869 2.48119,-0.77623 4.19445,0.93703 1.13993,1.13994 1.8157,2.32952 1.5017,2.64352 -0.314,0.314 -0.83737,-0.1235 -1.16306,-0.97222 z m 1.8395,-22.19157 c -1.20548,-1.20548 -1.29855,-1.88264 -0.40649,-2.95751 0.63633,-0.76673 2.00186,-1.39405 3.03451,-1.39405 1.31368,0 1.87756,0.71869 1.87756,2.39301 0,1.31616 -0.66198,2.64704 -1.47106,2.95751 -0.80908,0.31048 -2.17462,-0.13905 -3.03452,-0.99896 z m -50.16083,-11.10297 c -2.29382,-2.50426 -3.32318,-4.52574 -3.12662,-6.14013 0.16117,-1.3237 1.06215,-2.88823 2.00218,-3.47671 1.30416,-0.81645 2.79278,-0.54351 6.28244,1.1519 2.51532,1.22204 4.83223,2.89664 5.1487,3.72135 0.31647,0.82471 0.30459,2.5785 -0.0264,3.89731 -0.37937,1.51155 -1.75851,2.80106 -3.73122,3.48875 -2.92847,1.02087 -3.34899,0.8512 -6.54906,-2.64247 z m 24.13934,2.70761 c -0.35481,-0.5741 -0.0777,-1.72753 0.61587,-2.56319 1.12578,-1.35649 1.35523,-1.35095 2.14021,0.0517 0.48358,0.86411 0.60332,2.01755 0.2661,2.56319 -0.33723,0.54566 -1.01003,0.9921 -1.49511,0.9921 -0.48508,0 -1.17226,-0.46971 -1.52707,-1.0438 z m 4.54238,-12.7062 c 0.008,-0.4125 0.43969,-1.42124 0.95836,-2.24164 0.71284,-1.12751 1.22488,-1.20981 2.09756,-0.33713 0.63498,0.63498 0.85216,1.64371 0.48262,2.24164 -0.36954,0.59792 -1.32033,1.08713 -2.11287,1.08713 -0.79254,0 -1.43409,-0.3375 -1.42567,-0.75 z m 151.01871,200.99845 c -1.90629,-0.96165 -4.38129,-3.32345 -5.5,-5.24845 -1.9136,-3.29278 -2.03402,-5.15773 -2.03402,-31.5 0,-24.49381 0.2126,-28.37566 1.69777,-31 0.93377,-1.65 4.0213,-5.475 6.86119,-8.5 2.83988,-3.025 10.40089,-10.90607 16.80223,-17.51349 6.40135,-6.60742 21.31381,-22.08975 33.13881,-34.40518 11.825,-12.31543 22.0625,-22.96471 22.75,-23.66508 0.6875,-0.70037 1.25,-1.47077 1.25,-1.71201 0,-0.24124 -15.76136,-0.64401 -35.02525,-0.89503 -33.17604,-0.43232 -35.16911,-0.56298 -37.75,-2.47476 -1.49861,-1.11009 -3.73725,-3.50602 -4.97475,-5.32428 -2.19476,-3.22478 -2.25,-3.96214 -2.25,-30.03593 0,-21.32583 0.29894,-27.445446 1.4786,-30.268776 0.81323,-1.94634 2.95073,-4.58879 4.75,-5.87213 l 3.2714,-2.33333 89.90168,-0.26578 c 88.05888,-0.26033 89.98614,-0.22489 94.02185,1.72876 2.26609,1.097 5.01033,3.4666 6.09831,5.26578 1.84126,3.04486 1.97816,5.13975 1.97816,30.271236 0,23.81517 -0.20823,27.41285 -1.76533,30.5 -0.97093,1.925 -3.14088,5.075 -4.82211,7 -1.68123,1.925 -6.03784,6.81886 -9.68136,10.87525 -3.64351,4.05639 -7.09856,7.88801 -7.67788,8.5147 -0.57933,0.62669 -4.65332,5.17304 -9.05332,10.10299 -4.4,4.92996 -9.125,10.11738 -10.5,11.52762 -1.375,1.41024 -6.1,6.55342 -10.5,11.42931 -4.4,4.87588 -9.575,10.7022 -11.5,12.94737 -1.925,2.24517 -5.6375,6.38025 -8.25,9.18907 -2.6125,2.80881 -4.75,5.38493 -4.75,5.72471 0,0.33977 16.34622,0.74629 36.32493,0.90337 l 36.32493,0.28561 3.65446,2.5 c 2.00995,1.375 4.22623,3.85 4.92507,5.5 0.92423,2.18217 1.27061,10.51678 1.27061,30.57327 v 27.57327 l -2.5,3.67216 c -1.375,2.01969 -3.91801,4.34922 -5.65113,5.17673 -2.73532,1.30603 -15.40311,1.50436 -96,1.50302 -86.40601,-0.001 -93.08938,-0.12288 -96.31485,-1.75 z m 192.89789,-7.15282 c 1.9665,-2.76171 2.06809,-4.21454 2.06809,-29.57692 v -26.67256 l -2.92308,-2.92307 -2.92307,-2.92308 h -42.07693 c -24.8345,0 -42.07692,-0.37563 -42.07692,-0.91667 0,-0.50416 0.3375,-1.06666 0.75,-1.25 0.4125,-0.18333 4.125,-4.15833 8.25,-8.83333 4.125,-4.675 7.73118,-8.725 8.01373,-9 0.28255,-0.275 7.44359,-8.15 15.91342,-17.5 8.46984,-9.35 19.2961,-21.275 24.05837,-26.5 4.76228,-5.225 12.49545,-13.775 17.18483,-19 4.68938,-5.225 9.26943,-10.94015 10.1779,-12.70034 1.41107,-2.73401 1.65175,-6.98319 1.65175,-29.16111 V 94.290584 l -3.07673,-2.58889 -3.07672,-2.5889 -88.67328,0.0147 c -69.35152,0.0115 -89.21802,0.28959 -91.17327,1.27608 -1.37661,0.69454 -3.03633,2.82236 -3.69356,4.73525 -0.78033,2.2712 -1.2131,11.343346 -1.25,26.203686 -0.0459,18.46627 0.2395,23.46938 1.52126,26.67283 0.86774,2.16869 2.33024,4.31529 3.25,4.77024 0.91977,0.45494 20.20569,1.05217 42.85761,1.32717 l 41.18531,0.5 -8.18531,8.65676 c -4.50192,4.76122 -18.55206,19.38622 -31.22254,32.5 -12.67048,13.11378 -28.92676,29.95527 -36.12506,37.42553 -7.19831,7.47026 -13.70655,14.67026 -14.46277,16 -1.04978,1.84595 -1.41835,8.2967 -1.55849,27.2774 -0.10842,14.68551 0.22701,25.93952 0.81961,27.49817 0.55173,1.45116 1.71657,3.4268 2.58853,4.39031 1.48917,1.64551 7.30724,1.75183 95.8623,1.75183 h 94.27692 z M 441.96487,292.49331 c -0.9005,-1.37434 -1.49696,-3.43873 -1.32547,-4.58753 0.17149,-1.1488 1.07296,-2.56578 2.00326,-3.14882 1.29267,-0.81015 2.17682,-0.62086 3.75,0.80286 1.1322,1.02462 2.05165,2.8057 2.04323,3.95796 -0.008,1.15225 -0.34592,2.57783 -0.75,3.16795 -0.40408,0.59012 -1.48823,1.35046 -2.40922,1.68966 -1.11639,0.41115 -2.22026,-0.21617 -3.3118,-1.88208 z m 4.48633,-2.88052 c 0,-0.825 -0.85186,-1.5 -1.89301,-1.5 -1.04116,0 -2.15203,0.675 -2.46862,1.5 -0.41585,1.08369 0.10953,1.5 1.89301,1.5 1.52766,0 2.46862,-0.57175 2.46862,-1.5 z m 40.82096,-0.48346 c -2.57347,-2.22796 -5.61097,-5.55874 -6.75,-7.40173 -1.13903,-1.84298 -2.07096,-4.35645 -2.07096,-5.58549 0,-1.22904 1.75086,-5.97085 3.8908,-10.53736 2.35568,-5.0269 4.93067,-8.9841 6.5264,-10.02966 2.0107,-1.31747 3.75554,-1.57349 7.3592,-1.07981 2.59798,0.35591 6.7486,1.65295 9.2236,2.88231 3.64322,1.80963 4.82284,3.09198 6.19562,6.7352 0.93259,2.475 1.72009,7.11708 1.75,10.31574 0.0299,3.19866 -0.46709,6.79011 -1.10443,7.981 -0.63735,1.1909 -2.31041,3.07381 -3.71792,4.18426 -1.40751,1.11045 -4.26724,2.78727 -6.35495,3.72627 -2.08771,0.939 -5.25215,1.96666 -7.03208,2.28369 -2.76037,0.49166 -3.92426,-0.0192 -7.91528,-3.47442 z m 13.14267,-4.49811 c 2.69343,-1.36486 5.60533,-3.49265 6.4709,-4.72842 1.1771,-1.68054 1.41241,-3.51252 0.93362,-7.26843 -0.35207,-2.76187 -1.23208,-6.19448 -1.95558,-7.62802 -0.90328,-1.78976 -2.69463,-2.99259 -5.71704,-3.83882 -2.42087,-0.6778 -5.42388,-1.0799 -6.67335,-0.89355 -1.69643,0.253 -3.26649,2.29337 -6.19946,8.05648 -3.06074,6.01415 -3.70696,8.13012 -2.92766,9.58625 0.55002,1.02772 2.82493,3.51727 5.05537,5.53233 2.23043,2.01506 4.51899,3.66375 5.08569,3.66375 0.5667,0 3.23408,-1.11671 5.92751,-2.48157 z m 33.26749,4.48227 c -1.18029,-1.09962 -3.33712,-4.03181 -4.79295,-6.51599 -1.87866,-3.2057 -2.45973,-5.26269 -2.0019,-7.08682 0.35479,-1.41358 1.73131,-3.65638 3.05894,-4.98401 1.46321,-1.46321 3.57824,-2.41388 5.37035,-2.41388 1.62606,0 5.58401,0.97162 8.79546,2.15915 3.21144,1.18753 6.70124,2.96229 7.75511,3.94391 1.37369,1.2795 1.86925,2.98134 1.75051,6.01155 -0.0911,2.32473 -0.88634,5.02317 -1.76722,5.99653 -0.88088,0.97336 -3.66127,2.47155 -6.17865,3.3293 -2.51738,0.85776 -5.76203,1.55956 -7.21035,1.55956 -1.44831,0 -3.599,-0.89969 -4.7793,-1.9993 z m 12.08822,-5.92955 c 2.08051,-0.79283 2.73565,-1.63857 2.5,-3.22731 -0.24138,-1.62733 -1.87275,-2.73253 -6.68232,-4.52706 -4.89902,-1.8279 -6.68211,-2.10929 -7.75,-1.22301 -0.76286,0.63311 -1.38702,1.84104 -1.38702,2.68428 0,0.84324 1.1821,3.08298 2.62688,4.97718 2.12962,2.79209 3.12342,3.34429 5.25,2.91716 1.44272,-0.28978 3.89182,-1.01033 5.44246,-1.60124 z M 431.4512,279.58141 c 0,-0.84227 0.69441,-1.79786 1.54313,-2.12354 0.84872,-0.32569 1.75931,-0.37597 2.02354,-0.11175 0.26422,0.26423 0.19667,1.21982 -0.15012,2.12354 -0.34679,0.90372 -1.25738,1.64313 -2.02354,1.64313 -0.76615,0 -1.39301,-0.68912 -1.39301,-1.53138 z m 157.22251,-17.02532 c -1.22238,-0.85619 -2.22251,-2.34119 -2.22251,-3.3 0,-0.95882 0.54,-2.2833 1.2,-2.9433 0.66,-0.66 2.42786,-1.2 3.92857,-1.2 1.50072,0 3.43572,0.70714 4.3,1.57143 0.86429,0.86428 1.56454,1.87678 1.55612,2.25 -0.008,0.37321 -0.34592,1.1737 -0.75,1.77887 -0.40408,0.60516 -1.71761,1.61766 -2.91895,2.25 -1.20134,0.63233 -2.33871,1.1497 -2.52749,1.1497 -0.18878,0 -1.34337,-0.70052 -2.56574,-1.5567 z m 3.77749,-3.9433 c 0,-0.825 -0.45,-1.5 -1,-1.5 -0.55,0 -1,0.675 -1,1.5 0,0.825 0.45,1.5 1,1.5 0.55,0 1,-0.675 1,-1.5 z m -129.5,-4.66068 c -1.1,-0.60493 -2.77749,-2.05375 -3.72776,-3.21959 -1.02833,-1.26162 -1.73677,-3.85863 -1.75,-6.41518 -0.0166,-3.21412 0.57898,-4.89668 2.36603,-6.68373 1.31355,-1.31355 4.01059,-2.69262 5.99343,-3.0646 1.98283,-0.37199 4.76222,-0.38593 6.17642,-0.031 1.76018,0.44178 3.17481,1.97484 4.48461,4.86006 1.05234,2.31809 1.92323,5.40559 1.93531,6.86112 0.0149,1.7942 -1.11633,3.64584 -3.51284,5.75 -2.41797,2.12301 -4.55064,3.09398 -6.75,3.07318 -1.76836,-0.0167 -4.1152,-0.52535 -5.2152,-1.13027 z m 8.79833,-6.61647 c 1.33762,-1.47806 1.40194,-2.19335 0.38218,-4.25 -0.85587,-1.72613 -2.20082,-2.56749 -4.45396,-2.78626 -2.70354,-0.2625 -3.39016,0.11355 -4.22719,2.3151 -0.54965,1.44568 -0.99936,2.79207 -0.99936,2.99198 0,0.19991 0.70714,1.07062 1.57143,1.9349 0.86428,0.86429 2.59454,1.57143 3.84501,1.57143 1.25047,0 2.99732,-0.79972 3.88189,-1.77715 z m 44.72684,-24.04384 c -1.66384,-1.66384 -3.01529,-4.07228 -3.00321,-5.35209 0.0121,-1.2798 0.84077,-4.12692 1.84152,-6.32692 1.00076,-2.2 2.57018,-4.62117 3.48761,-5.38039 1.11301,-0.92106 3.04469,-1.19574 5.80523,-0.82547 2.27545,0.3052 5.02074,1.43847 6.10064,2.51838 1.12141,1.12141 2.1794,3.87923 2.46697,6.43057 0.42526,3.77285 0.13615,4.81538 -1.86021,6.70804 -1.30005,1.23251 -3.39607,2.64413 -4.65782,3.13692 -1.26176,0.49279 -3.38793,1.17052 -4.72484,1.50606 -1.85441,0.46543 -3.14797,-0.10718 -5.45589,-2.4151 z m 9.07054,-4.89462 c 1.59736,-0.94358 2.90429,-2.24373 2.90429,-2.88921 0,-0.64549 -0.87181,-2.23596 -1.93735,-3.5344 -1.57537,-1.91968 -2.27603,-2.15458 -3.75,-1.2572 -0.99696,0.60698 -2.2185,2.24182 -2.71454,3.63299 -0.49604,1.39117 -0.62266,3.25706 -0.28139,4.14642 0.34128,0.88935 1.1277,1.61701 1.7476,1.61701 0.6199,0 2.43403,-0.77202 4.03139,-1.71561 z m -35.89571,0.51561 c -0.66,-0.66 -1.2,-1.98939 -1.2,-2.95419 0,-0.96481 2.1172,-3.3708 4.7049,-5.34665 3.05387,-2.33181 5.56262,-3.48836 7.14914,-3.29581 1.34433,0.16316 2.90257,1.02906 3.46277,1.92424 0.74822,1.19563 0.44189,2.85433 -1.15426,6.25 -2.13959,4.55176 -2.24608,4.62241 -6.96767,4.62241 -2.63719,0 -5.33488,-0.54 -5.99488,-1.2 z m 54.52568,-29.55063 c -1.1457,-1.26598 -1.31327,-2.23492 -0.6053,-3.5 0.53845,-0.96215 2.03179,-1.74937 3.31853,-1.74937 1.28674,0 3.36442,0.82991 4.61706,1.84424 1.45714,1.17992 2.04867,2.44068 1.64217,3.5 -0.41774,1.08863 -1.79185,1.65576 -4.01177,1.65576 -1.94608,0 -4.04754,-0.7416 -4.96069,-1.75063 z m 5.27432,-1.8327 c 0,-1.61956 -0.46635,-2.42976 -1.25,-2.17168 -0.6875,0.22642 -1.3938,1.38892 -1.56955,2.58334 -0.21221,1.44221 0.20766,2.17167 1.25,2.17167 1.02102,0 1.56955,-0.90283 1.56955,-2.58333 z m -35.56846,-0.92703 c -1.68765,-0.74097 -3.62765,-2.02101 -4.31111,-2.84453 -0.69244,-0.83434 -1.1049,-3.36752 -0.93154,-5.72123 0.23218,-3.15225 0.96033,-4.70664 2.86994,-6.12643 1.41872,-1.05482 5.00988,-2.15546 8.0599,-2.47025 5.29236,-0.54622 5.60688,-0.442 8.29042,2.7472 2.22175,2.6404 2.67989,3.98948 2.25143,6.62978 -0.29586,1.82315 -1.49616,4.66055 -2.66735,6.30532 -1.80693,2.5376 -2.76275,2.97815 -6.31132,2.90893 -2.30005,-0.0449 -5.56272,-0.68783 -7.25037,-1.42879 z m 9.96147,-6.07143 c 0.33385,-0.86998 0.60699,-2.44498 0.60699,-3.5 0,-1.05501 -0.5625,-1.96802 -1.25,-2.0289 -0.6875,-0.0609 -2.375,-0.0151 -3.75,0.1018 -1.375,0.11687 -3.2875,0.63252 -4.25,1.14588 -0.9625,0.51336 -1.75,1.60705 -1.75,2.43042 0,0.82337 1.0125,1.90401 2.25,2.40143 1.2375,0.49741 3.43936,0.93291 4.89301,0.96777 1.53263,0.0368 2.89802,-0.60115 3.25,-1.5184 z m 32.75876,-29.73534 c -0.91824,-1.10642 -0.83522,-1.70069 0.37828,-2.70781 1.18309,-0.98188 1.83313,-1.01188 2.71947,-0.12554 0.88635,0.88635 0.79593,1.5336 -0.37828,2.70781 -1.3262,1.3262 -1.70837,1.34384 -2.71947,0.12554 z m 16.93914,-3.32486 c -4.01347,-1.99999 -5.6888,-3.53054 -6.84464,-6.25309 -1.26753,-2.98564 -1.34896,-4.8897 -0.47404,-11.08376 0.89398,-6.32904 1.51187,-7.88581 4.01897,-10.12591 2.05659,-1.83756 4.93661,-2.99083 9.4176,-3.77116 3.55027,-0.61825 7.94003,-1.12409 9.75504,-1.12409 2.48599,0 4.12737,0.87726 6.6541,3.55638 1.84475,1.956 3.74441,4.9935 4.22146,6.75 0.47706,1.75649 0.50429,3.91241 0.0605,4.79094 -0.44378,0.87853 -4.5403,5.46363 -9.10339,10.18911 -4.56309,4.72549 -9.21788,8.84559 -10.34397,9.15578 -1.1985,0.33014 -4.25088,-0.53404 -7.36165,-2.0842 z m 14.24503,-11.26078 c 3.66523,-3.79652 6.66406,-7.60035 6.66406,-8.45295 0,-0.85259 -0.52223,-2.69635 -1.16052,-4.09723 -1.0136,-2.22463 -1.78036,-2.54705 -6.05717,-2.54705 -2.69317,0 -6.85969,0.49429 -9.25894,1.09843 -3.26314,0.82167 -4.6243,1.76653 -5.4022,3.75 -0.57196,1.45836 -1.32595,4.29995 -1.67553,6.31463 -0.34958,2.01468 -0.33696,4.604 0.0281,5.75404 0.36501,1.15004 1.87025,2.74615 3.34498,3.54691 1.47473,0.80075 3.62,1.47393 4.76727,1.49595 1.30081,0.025 4.59422,-2.55809 8.75,-6.86273 z m -107.83594,5.17916 c -1.1,-0.27038 -2.5625,-0.94828 -3.25,-1.50644 -0.6875,-0.55816 -1.25,-2.51891 -1.25,-4.35721 0,-2.28105 0.6142,-3.67108 1.93426,-4.37756 1.06384,-0.56935 2.19679,-1.03518 2.51767,-1.03518 0.32087,0 2.15045,1.61363 4.06574,3.58585 1.91528,1.97222 3.48233,4.13222 3.48233,4.8 0,0.66778 -0.54,1.75415 -1.2,2.41415 -0.66,0.66 -1.8975,1.1478 -2.75,1.084 -0.8525,-0.0638 -2.45,-0.33723 -3.55,-0.60761 z m -47.5,-5.71737 c 0,-0.79254 0.48921,-1.74333 1.08713,-2.11287 0.59793,-0.36954 1.60666,-0.15236 2.24164,0.48262 0.87268,0.87268 0.79038,1.38472 -0.33713,2.09756 -0.8204,0.51867 -1.82914,0.94994 -2.24164,0.95836 -0.4125,0.008 -0.75,-0.63313 -0.75,-1.42567 z m 79.6595,-1.05283 c -1.56228,-0.81482 -4.59978,-2.87486 -6.75,-4.57787 -2.96172,-2.34573 -3.9095,-3.81108 -3.9095,-6.04447 0,-1.62145 0.62746,-4.44982 1.39437,-6.28528 0.7669,-1.83545 2.44203,-4.071 3.7225,-4.96788 1.35584,-0.94966 4.30371,-1.63069 7.05858,-1.63069 2.60175,0 5.91271,0.53868 7.35771,1.19706 1.44499,0.65838 3.49116,2.89046 4.54705,4.96016 1.05588,2.06971 1.91979,5.27498 1.91979,7.12283 0,2.26244 -0.89815,4.35137 -2.75,6.39595 -1.5125,1.66993 -3.73292,3.55098 -4.93426,4.18011 -1.20134,0.62914 -2.77634,1.14112 -3.5,1.13773 -0.72366,-0.003 -2.59397,-0.67283 -4.15624,-1.48765 z m 8.51686,-7.53042 c 1.59177,-2.14063 1.70501,-3.01763 0.74514,-5.7711 -0.62253,-1.78579 -1.9477,-3.68351 -2.94482,-4.21715 -0.99713,-0.53365 -3.31229,-0.68583 -5.14482,-0.33818 -1.83252,0.34765 -3.89436,1.07387 -4.58186,1.61382 -0.6875,0.53995 -1.25,2.26041 -1.25,3.82323 0,2.16126 0.89774,3.45502 3.75,5.40423 2.0625,1.4095 4.60485,2.43823 5.64967,2.28606 1.04482,-0.15218 2.74433,-1.41258 3.77669,-2.80091 z m 17.97665,1.15693 c -1.18416,-1.02701 -2.15301,-2.3809 -2.15301,-3.00865 0,-0.62775 1.35,-3.00499 3,-5.28275 1.65,-2.27776 3,-4.70071 3,-5.38435 0,-0.68363 0.76523,-1.53662 1.7005,-1.89552 0.99337,-0.38119 2.76069,0.13623 4.25,1.24426 2.03197,1.51177 2.60938,2.89945 2.8445,6.83613 0.28764,4.81619 0.197,4.9944 -3.63616,7.14875 -2.16213,1.21519 -4.58853,2.20943 -5.39198,2.20943 -0.80346,0 -2.42969,-0.84028 -3.61385,-1.8673 z m -104.61654,-6.09241 c -1.19793,-1.32369 -1.56894,-2.77478 -1.14318,-4.47113 0.34668,-1.38129 1.53361,-2.99485 2.63762,-3.5857 1.47859,-0.79132 2.72661,-0.73113 4.7382,0.22852 1.76534,0.84217 2.83848,2.22804 3.03518,3.91969 0.16805,1.44519 -0.42362,3.3448 -1.32143,4.24261 -0.89414,0.89415 -2.64883,1.62572 -3.8993,1.62572 -1.25047,0 -3.07166,-0.88187 -4.04709,-1.95971 z m 5.46353,-3.48127 c 0,-0.24254 -0.41891,-0.69988 -0.9309,-1.01631 -0.512,-0.31644 -1.21356,-0.11799 -1.55902,0.44098 -0.34546,0.55897 0.0734,1.01631 0.9309,1.01631 0.85746,0 1.55902,-0.19844 1.55902,-0.44098 z m 15.37877,-8.1037 c -1.61257,-2.46109 -1.57433,-2.64176 1.16404,-5.5 1.55725,-1.62543 3.61071,-2.95531 4.56324,-2.95531 0.95253,0 3.11549,0.7875 4.80659,1.74999 2.18654,1.24449 3.07654,2.49801 3.08104,4.33948 0.004,1.80794 -0.76242,2.93975 -2.54073,3.75 -1.40088,0.63829 -4.09051,1.16052 -5.97695,1.16052 -2.57113,0 -3.84736,-0.63713 -5.09723,-2.54468 z m 244.83941,203.8816 c -1.805,-0.88965 -4.28,-3.0169 -5.5,-4.72723 -2.16654,-3.03729 -2.22519,-3.8747 -2.51937,-35.9689 l -0.30118,-32.85921 -26.09451,-51.64079 c -14.35198,-28.40244 -30.19144,-59.74079 -35.19881,-69.64079 -8.31934,-16.44803 -9.10431,-18.4941 -9.10431,-23.730766 0,-5.13906 0.33755,-6.06831 3.26923,-9 l 3.26923,-3.26923 h 35.73077 c 33.89831,0 35.88463,0.10127 38.73077,1.97464 1.65,1.08606 3.98196,3.07726 5.18212,4.42491 1.20017,1.34764 8.08186,14.296546 15.29263,28.775346 7.21078,14.47881 13.65382,26.31147 14.31788,26.2948 0.66405,-0.0167 7.28237,-12.2254 14.70737,-27.13053 10.7202,-21.519996 14.28129,-27.770126 17.29432,-30.353556 2.08688,-1.78934 5.18063,-3.5306 6.875,-3.86947 1.69437,-0.33888 17.31193,-0.59074 34.70568,-0.55969 21.76287,0.0388 32.70566,0.42864 35.09037,1.25 1.98002,0.68196 4.44463,2.64998 5.75,4.59144 1.30674,1.94349 2.28463,4.90942 2.28463,6.92927 0,2.520284 -3.39994,10.280156 -11.87461,27.102106 -6.53104,12.9639 -22.10702,43.82073 -34.61329,68.57073 -12.50627,24.75 -23.1377,45.4275 -23.62539,45.95 -0.48769,0.5225 -0.89562,13.5725 -0.90652,29 -0.0109,15.4275 -0.47266,31.18352 -1.02615,35.01339 -0.69722,4.8244 -1.68945,7.69496 -3.23019,9.34501 -1.22312,1.3099 -3.439,3.01387 -4.92419,3.78661 -2.16623,1.12709 -9.38568,1.40049 -36.5,1.38222 -29.08527,-0.0196 -34.25741,-0.24839 -37.08148,-1.64031 z m 73.41788,-5.12656 c 0.0748,-0.1157 0.86233,-1.74087 1.75,-3.61149 1.37809,-2.90411 1.61394,-7.9603 1.61394,-34.59993 v -31.19879 l 10.12457,-20.15008 c 5.56851,-11.08254 21.78365,-43.19078 36.03365,-71.35166 l 25.90908,-51.201576 -1.46775,-3.51282 c -0.89945,-2.15268 -2.36445,-3.7368 -3.78365,-4.0913 -1.27375,-0.31815 -17.02119,-0.44667 -34.99433,-0.28559 -31.00082,0.27785 -32.82327,0.39716 -35.5,2.32416 -2.03233,1.4631 -7.43689,11.182986 -19.32157,34.749086 -9.075,17.9948 -16.725,32.68988 -17,32.65574 -0.275,-0.0342 -7.025,-13.36936 -15,-29.63381 -7.975,-16.26444 -15.7654,-31.345712 -17.312,-33.513936 -1.5466,-2.16822 -4.34465,-4.5826 -6.21788,-5.36529 -2.70542,-1.1304 -10.00302,-1.42307 -35.48346,-1.42307 h -32.07757 l -2.45454,2.45455 c -1.45591,1.4559 -2.45455,3.61223 -2.45455,5.3 0,1.565004 0.39946,3.272956 0.88768,3.795456 0.48823,0.5225 13.83458,26.59999 29.65857,57.94999 15.82399,31.35 31.28704,61.95 34.36232,68 l 5.59143,11 0.5,33.17904 c 0.47748,31.68454 0.59415,33.30502 2.59015,35.97619 1.14958,1.53844 3.0818,3.03287 4.29381,3.32097 1.21202,0.28809 17.37145,0.28096 35.90985,-0.0158 18.53841,-0.2968 33.76742,-0.6343 33.84225,-0.75 z M 727.4512,295.36124 c -2.25602,-1.12701 -3.61895,-2.58914 -3.83466,-4.11379 -0.18407,-1.30093 0.0984,-2.79841 0.62773,-3.32773 0.52932,-0.52932 2.59634,-1.33091 4.59338,-1.78132 3.20073,-0.72188 3.86693,-0.51895 5.62226,1.71259 1.09521,1.39234 1.99129,3.50583 1.99129,4.69666 0,1.19083 -0.54,2.70514 -1.2,3.36514 -0.66,0.66 -1.8975,1.1993 -2.75,1.19845 -0.8525,-8.6e-4 -3.125,-0.78836 -5.05,-1.75 z m -18.85131,-1.13539 c -0.9596,-0.60809 -0.45934,-0.98724 1.72575,-1.30794 2.46745,-0.36214 2.8595,-0.18946 1.97887,0.87163 -0.60401,0.72779 -1.3806,1.31636 -1.72575,1.30794 -0.34516,-0.008 -1.23565,-0.40066 -1.97887,-0.87163 z m 45.35131,-1.11306 c -0.39915,-0.64585 -0.27574,-1.62426 0.27426,-2.17426 0.66667,-0.66667 1.24192,-0.60858 1.72574,0.17426 0.39915,0.64585 0.27574,1.62426 -0.27426,2.17426 -0.66667,0.66667 -1.24192,0.60858 -1.72574,-0.17426 z m -47.43661,-2.12756 c -0.0349,-0.89515 0.58999,-2.16981 1.38857,-2.83257 0.79858,-0.66276 2.26108,-0.99506 3.25,-0.73845 1.39321,0.36153 1.2842,0.49269 -0.48418,0.58258 -1.36344,0.0693 -2.64632,1.02182 -3.18662,2.366 -0.61201,1.52262 -0.92488,1.72384 -0.96777,0.62244 z m 42.57609,-11.56629 c -0.35171,-0.35172 -0.63948,-1.01448 -0.63948,-1.47282 0,-0.45833 0.675,-0.83333 1.5,-0.83333 0.825,0 1.5,0.42344 1.5,0.94098 0,0.51754 -0.38723,1.18031 -0.86052,1.47282 -0.47329,0.2925 -1.14829,0.24406 -1.5,-0.10765 z m 14.02719,-16.97282 c -0.36667,-0.36666 -0.66667,-1.04166 -0.66667,-1.5 0,-0.45833 0.675,-0.83333 1.5,-0.83333 0.825,0 1.5,0.675 1.5,1.5 0,0.825 -0.375,1.5 -0.83333,1.5 -0.45834,0 -1.13334,-0.3 -1.5,-0.66667 z m -38.66667,-3.76001 c 0,-0.92763 0.855,-1.57332 2.08333,-1.57332 1.22198,0 1.91126,0.51682 1.66714,1.25 -0.22891,0.6875 -1.16641,1.3955 -2.08334,1.57332 -0.98676,0.19138 -1.66713,-0.31876 -1.66713,-1.25 z m 18.04659,-9.01718 c -0.67032,-0.80769 -0.92847,-1.93824 -0.57366,-2.51234 0.35481,-0.57409 1.2454,-1.0438 1.9791,-1.0438 0.7337,0 1.58039,0.6421 1.88154,1.42689 0.30115,0.78478 -0.041,1.91533 -0.76033,2.51233 -0.96166,0.7981 -1.63051,0.6967 -2.52665,-0.38308 z m -32.46047,-8.46098 c -1.63573,-1.80746 -1.61747,-2.11338 0.35717,-5.984 1.3778,-2.7007 2.97432,-4.30336 4.72446,-4.74262 1.94279,-0.48761 2.99977,-0.17614 3.98784,1.17513 0.73943,1.01122 1.34441,2.6872 1.34441,3.72438 0,1.03719 -1.31538,3.20118 -2.92308,4.80887 -1.60769,1.6077 -3.56294,2.92308 -4.34501,2.92308 -0.78206,0 -2.19767,-0.85718 -3.14579,-1.90484 z m 34.63639,-7.65186 c -1.2655,-0.88639 -2.22251,-2.60879 -2.22251,-4 0,-1.34382 0.9,-3.3433 2,-4.4433 1.1,-1.1 3.09948,-2 4.4433,-2 1.39121,0 3.11361,0.95701 4,2.22251 0.85618,1.22237 1.5567,3.38237 1.5567,4.8 0,1.41762 -0.54,3.11749 -1.2,3.77749 -0.66,0.66 -2.35987,1.2 -3.77749,1.2 -1.41763,0 -3.57763,-0.70052 -4.8,-1.5567 z m -28.31253,-19.28992 c -0.77549,-0.2493 -1.74059,-0.94829 -2.14467,-1.55332 -0.40408,-0.60503 -0.74158,-1.87173 -0.75,-2.81488 -0.008,-0.94315 0.90279,-2.20616 2.0249,-2.8067 1.6218,-0.86796 2.72948,-0.6659 5.40105,0.98522 2.39667,1.48122 3.21984,2.61626 2.86936,3.95647 -0.29106,1.11303 -1.61266,2.04393 -3.24106,2.28293 -1.51228,0.22195 -3.38409,0.19958 -4.15958,-0.0497 z m 3.51999,-4.26669 c -0.3014,-0.48768 -0.97145,-0.88669 -1.48899,-0.88669 -0.51754,0 -0.94098,0.9551 -0.94098,2.12244 0,1.76626 0.24988,1.91507 1.48899,0.8867 0.81894,-0.67967 1.24239,-1.63477 0.94098,-2.12245 z m -22.42997,2.61331 c 0,-0.825 0.45,-1.5 1,-1.5 0.55,0 1,0.675 1,1.5 0,0.825 -0.45,1.5 -1,1.5 -0.55,0 -1,-0.675 -1,-1.5 z m 52.5,-11.16389 c -1.65,-0.20033 -4.41849,-0.59504 -6.15221,-0.87714 -2.55004,-0.41492 -3.45744,-1.27575 -4.75,-4.50617 -0.87878,-2.1963 -1.59779,-6.30384 -1.59779,-9.12787 0,-4.67641 0.35156,-5.46903 3.93964,-8.88229 2.16681,-2.06123 5.5657,-4.28434 7.55311,-4.94025 1.98741,-0.6559 4.60292,-0.94421 5.81225,-0.64069 1.20933,0.30352 4.84438,2.90984 8.07789,5.79182 3.23351,2.88198 6.43194,6.55476 7.10762,8.16173 0.93089,2.21394 0.95824,3.80152 0.11288,6.55326 -0.61359,1.99732 -1.95213,4.86899 -2.97452,6.38149 -1.71298,2.53415 -2.34044,2.73824 -7.99388,2.60017 -3.37424,-0.0824 -7.48499,-0.31374 -9.13499,-0.51406 z m 14.33948,-7.88316 c 0.63829,-1.40088 1.16052,-3.15573 1.16052,-3.89966 0,-0.74393 -2.51126,-3.64776 -5.58059,-6.45295 -3.06932,-2.80519 -6.33182,-5.09866 -7.25,-5.0966 -0.91817,0.002 -3.14313,0.90226 -4.94434,2.00046 -1.8012,1.09819 -3.70522,3.1285 -4.23114,4.51178 -0.53142,1.39772 -0.61282,4.17413 -0.18323,6.24954 0.67496,3.26087 1.21155,3.8129 4.23115,4.35284 1.90198,0.3401 6.19842,0.6776 9.54763,0.75 5.61416,0.12136 6.18008,-0.0672 7.25,-2.41541 z m -67.46167,-6.94287 c -2.2672,-1.35905 -4.8547,-3.58896 -5.75,-4.95536 -0.89529,-1.36639 -1.62781,-3.42253 -1.62781,-4.5692 0,-1.14666 0.73779,-3.52499 1.63953,-5.28518 0.90175,-1.76019 2.13925,-3.53095 2.75,-3.93503 0.61076,-0.40408 4.54812,-0.74158 8.74969,-0.75 5.86328,-0.0118 8.10374,0.39152 9.6374,1.73469 1.09901,0.9625 2.49565,3.27043 3.10365,5.12874 0.8384,2.56252 0.80303,4.01199 -0.1464,6 -0.68851,1.44169 -3.43616,4.08376 -6.10587,5.87126 -2.66972,1.7875 -5.59067,3.24574 -6.49101,3.24054 -0.90035,-0.005 -3.49197,-1.12141 -5.75918,-2.48046 z m 9.89006,-6.04613 c 2.11584,-1.43775 3.73213,-3.36103 3.73213,-4.44098 0,-1.04772 -0.3375,-2.11153 -0.75,-2.36402 -0.4125,-0.2525 -3.225,-0.74389 -6.25,-1.09198 -3.025,-0.34809 -6.05136,-0.26089 -6.72524,0.19378 -0.67388,0.45467 -1.34888,1.89757 -1.5,3.20644 -0.20198,1.74941 0.62526,2.996 3.12312,4.70628 1.86884,1.27959 3.67688,2.32653 4.01787,2.32653 0.34099,0 2.29944,-1.14122 4.35212,-2.53605 z m 58.14017,-16.96395 c -1.51741,-2.31587 -1.51741,-2.68413 0,-5 1.26869,-1.93626 2.48975,-2.5 5.41501,-2.5 2.07732,0 4.31695,0.54 4.97695,1.2 0.66,0.66 1.2,1.77935 1.2,2.48746 0,0.7081 -1.79106,2.4181 -3.98013,3.8 -2.18907,1.38189 -4.42869,2.51254 -4.97695,2.51254 -0.54825,0 -1.73394,-1.125 -2.63488,-2.5 z m -69.20804,-11.7 c -0.66,-0.66 -1.2,-2.87968 -1.2,-4.93261 0,-2.95464 0.4534,-3.87652 2.17534,-4.42304 1.70266,-0.54041 2.78327,0.0425 4.9731,2.68261 1.53877,1.85517 2.80986,3.84554 2.82466,4.42304 0.0148,0.5775 -0.5131,1.59 -1.1731,2.25 -0.66,0.66 -2.37,1.2 -3.8,1.2 -1.43,0 -3.14,-0.54 -3.8,-1.2 z m 97.13193,-3.96437 c -2.10756,-1.78592 -6.41943,-5.79072 -9.58193,-8.89954 -3.89159,-3.82554 -5.75,-6.44279 -5.75,-8.0979 0,-1.34503 1.16044,-4.77421 2.57877,-7.62041 1.41832,-2.8462 3.90459,-6.59421 5.52505,-8.32892 2.86162,-3.06338 3.14128,-3.14006 9.73197,-2.6685 4.0082,0.28679 7.86527,1.19289 9.42322,2.21369 1.45064,0.9505 3.31769,3.60418 4.14899,5.89707 0.8313,2.29288 1.97706,5.96888 2.54615,8.16888 0.56908,2.2 1.03721,5.87797 1.04027,8.17327 0.004,2.99292 -0.69823,5.0097 -2.4828,7.13055 -1.36861,1.6265 -3.95611,3.63597 -5.75,4.46549 -1.79389,0.82953 -4.23725,1.8019 -5.42969,2.16084 -1.58874,0.47823 -3.19201,-0.21506 -6,-2.59452 z m 11.03321,-5.90821 c 2.15271,-1.69332 2.63486,-2.90034 2.63486,-6.59609 0,-2.48793 -0.69597,-6.91758 -1.54661,-9.84366 -0.85063,-2.92608 -2.16266,-5.83143 -2.91562,-6.45633 -0.78385,-0.65053 -3.86288,-1.00691 -7.2034,-0.83376 l -5.83437,0.30242 -2.72664,5 c -1.49965,2.75 -2.73715,5.72496 -2.75,6.61103 -0.0129,0.88607 2.94217,4.37357 6.56671,7.75 4.06701,3.78862 7.4611,6.13897 8.86514,6.13897 1.25129,0 3.46076,-0.93266 4.90993,-2.07258 z M 680.5924,125.56517 c -1.65887,-2.10892 -1.82673,-3.05603 -0.97475,-5.5 0.84833,-2.43354 1.58315,-2.94969 4.18138,-2.93707 1.73369,0.008 3.70789,0.36829 4.38711,0.79971 0.67922,0.43142 1.51158,2.16759 1.8497,3.85816 0.49696,2.48481 0.16981,3.3854 -1.70745,4.70029 -1.27721,0.89459 -3.08941,1.62653 -4.02712,1.62653 -0.9377,0 -2.60669,-1.14643 -3.70887,-2.54762 z m -25.10133,-2.90434 c -0.66276,-0.79858 -1.05536,-2.22379 -0.87245,-3.16713 0.18292,-0.94335 0.93878,-1.91703 1.67969,-2.16375 1.07786,-0.35891 1.11859,-0.0216 0.20375,1.6878 -0.62884,1.17501 -0.87098,2.57707 -0.53809,3.11571 0.3329,0.53863 1.43056,0.97933 2.43926,0.97933 1.0087,0 2.1086,-0.71561 2.44423,-1.59024 0.33562,-0.87464 0.35721,-1.99964 0.048,-2.5 -0.30925,-0.50037 -0.0857,-0.90976 0.49675,-0.90976 0.58246,0 1.05902,0.81 1.05902,1.8 0,0.99 -0.54,2.34 -1.2,3 -0.66,0.66 -1.9549,1.2 -2.87756,1.2 -0.92265,0 -2.21981,-0.65338 -2.88257,-1.45196 z m 6.96013,-18.48902 c 0,-1.13245 0.45,-2.05901 1,-2.05901 0.55,0 1,0.64844 1,1.44097 0,0.79254 -0.45,1.7191 -1,2.05902 -0.55,0.33992 -1,-0.30852 -1,-1.44098 z M 21.451205,311.11279 c 0,-1.97441 0.66667,-2 52.09571,-2 46.912695,0 52.377565,-0.1665 54.928735,-1.67352 1.55817,-0.92043 3.08396,-2.60793 3.39064,-3.75 0.30668,-1.14206 0.56375,-14.13443 0.57126,-28.87193 l 0.0136,-26.79546 -2.45455,-2.45454 -2.45454,-2.45455 H 74.496605 c -52.37878,0 -53.04545,-0.0251 -53.04545,-2 0,-1.96571 0.75,-2.00429 43.75,-2.25 24.0625,-0.1375 48.024995,-0.22588 53.249995,-0.1964 7.49121,0.0423 10.0923,0.44371 12.30111,1.8985 1.54061,1.01469 3.56561,3.24057 4.5,4.9464 1.45144,2.64975 1.74418,6.93348 2.00985,29.40985 0.29859,25.26226 0.22493,26.48606 -1.85241,30.77728 -1.22884,2.53844 -3.39362,5.10511 -5.0113,5.94165 -2.40305,1.24266 -11.13492,1.47272 -55.897585,1.47272 -52.38299,0 -53.04966,-0.0251 -53.04966,-2 z M 145.9036,310.70703 c -1.67618,-0.73012 -3.92618,-2.625 -5,-4.21086 -1.79434,-2.64996 -1.97745,-5.04678 -2.26186,-29.60694 -0.2741,-23.66955 -0.11182,-27.14007 1.41996,-30.36806 0.95119,-2.00448 3.11545,-4.48969 4.80946,-5.5227 2.81362,-1.71574 5.4315,-1.87853 30.26494,-1.88194 14.9517,-0.002 28.2863,0.41501 29.63246,0.92682 1.34616,0.51181 3.51295,2.42431 4.8151,4.25 2.35465,3.30137 2.36754,3.4719 2.36754,31.31944 0,25.85072 -0.14573,28.21501 -1.8985,30.80111 -1.04417,1.54061 -3.15933,3.45311 -4.70034,4.25 -2.2482,1.16259 -8.09742,1.44116 -29.6015,1.40975 -20.00439,-0.0292 -27.5724,-0.37574 -29.84726,-1.36662 z m 56.41949,-3.69942 c 1.74368,-0.60785 3.61083,-1.92827 4.14922,-2.93426 0.56907,-1.06333 0.97889,-13.11391 0.97889,-28.78403 0,-25.04203 -0.13556,-27.1225 -1.91021,-29.31575 -1.90603,-2.35562 -1.96665,-2.36143 -27.73476,-2.66027 -14.2035,-0.16472 -26.85535,-0.0408 -28.11522,0.27544 -1.25988,0.31621 -3.17924,1.46348 -4.26525,2.54949 -1.86828,1.86828 -1.97456,3.42348 -1.97456,28.89277 0,14.80502 0.29235,27.68006 0.64966,28.6112 0.35731,0.93115 2.04481,2.30034 3.75,3.04265 2.31031,1.00574 9.2417,1.35963 27.20112,1.3888 15.12015,0.0245 25.28213,-0.37268 27.27111,-1.06604 z m -20.53882,-11.47084 c -2.18478,-2.18478 -2.49275,-3.1968 -2.02778,-6.66342 0.30153,-2.24808 1.41368,-5.25137 2.47144,-6.67398 1.42122,-1.91144 2.98966,-2.66602 6.00897,-2.89094 3.25976,-0.24282 4.30366,0.10281 5.16363,1.70968 0.59283,1.10772 1.35204,4.01431 1.68714,6.45908 0.59439,4.33656 0.50497,4.5206 -3.66364,7.54032 -2.3501,1.70241 -4.90084,3.09528 -5.66832,3.09528 -0.76748,0 -2.55463,-1.15921 -3.97144,-2.57602 z m 7.44356,-4.2206 c 2.03658,-1.56741 2.15807,-2.09227 1.15217,-4.97777 -0.61845,-1.77408 -1.77839,-3.22561 -2.57765,-3.22561 -0.79926,0 -2.12771,1.61432 -2.95211,3.58738 -1.15676,2.76852 -1.23129,3.90982 -0.32652,5 0.6448,0.77694 1.45477,1.40261 1.79992,1.39038 0.34516,-0.0122 1.65204,-0.8107 2.90419,-1.77438 z m -36.77663,1.79662 c 0,-0.55 0.45,-1 1,-1 0.55,0 1,0.45 1,1 0,0.55 -0.45,1 -1,1 -0.55,0 -1,-0.45 -1,-1 z m 23,-16.38197 c 0,-0.825 0.45,-1.77811 1,-2.11803 0.55,-0.33992 1,0.057 1,0.88197 0,0.825 -0.45,1.77811 -1,2.11803 -0.55,0.33992 -1,-0.057 -1,-0.88197 z m -5.33333,-1.2847 c -0.36667,-0.36666 -0.66667,-0.99352 -0.66667,-1.39301 0,-0.39949 0.62407,-0.96582 1.38682,-1.25851 0.97287,-0.37333 1.23654,0.0425 0.88336,1.39301 -0.27689,1.05885 -0.60096,1.92518 -0.72014,1.92518 -0.11919,0 -0.51671,-0.3 -0.88337,-0.66667 z m 13.33333,-7.27431 c 0,-0.51754 0.44485,-1.21592 0.98855,-1.55194 0.56686,-0.35034 0.7345,0.0511 0.39301,0.94098 -0.32755,0.85357 -0.77239,1.55194 -0.98855,1.55194 -0.21615,0 -0.39301,-0.42344 -0.39301,-0.94098 z m -25.44958,-2.71416 c -0.43148,-1.71913 -0.2053,-2.96479 0.64159,-3.53349 0.71939,-0.48309 2.10479,-1.33409 3.07866,-1.8911 0.97386,-0.55702 2.24783,-0.71786 2.83102,-0.35742 0.60578,0.37439 0.77681,1.7851 0.39894,3.29065 -0.36378,1.44942 -1.13034,3.20033 -1.70347,3.89091 -0.57313,0.69057 -1.83817,1.25559 -2.8112,1.25559 -1.08066,0 -2.02848,-1.03327 -2.43554,-2.65514 z m 5.44958,-1.84486 c 0,-0.83333 -0.88889,-1.5 -2,-1.5 -1.1,0 -2,0.375 -2,0.83333 0,0.45834 0.3,1.13334 0.66667,1.5 0.36666,0.36667 1.26666,0.66667 2,0.66667 0.73333,0 1.33333,-0.675 1.33333,-1.5 z M 153.03415,256.247 c -0.43077,-0.697 -0.51316,-1.53733 -0.18309,-1.86741 0.33008,-0.33007 0.87201,-0.32826 1.20431,0.004 0.33229,0.33229 0.41468,1.17263 0.18308,1.86742 -0.33872,1.01617 -0.57427,1.01538 -1.2043,-0.004 z m 26.95976,-1.06511 c -0.31644,-0.512 -0.11799,-1.21356 0.44098,-1.55902 0.55897,-0.34546 1.01631,0.0734 1.01631,0.9309 0,0.85746 -0.19844,1.55902 -0.44098,1.55902 -0.24254,0 -0.69988,-0.41891 -1.01631,-0.9309 z M 56.774105,300.51187 c -0.33789,-0.88051 0.01,-1.98678 0.77302,-2.45836 0.78076,-0.48254 1.777,-0.4678 2.2785,0.0337 0.49013,0.49013 0.62052,1.59639 0.28975,2.45836 -0.33077,0.86197 -1.07965,1.56722 -1.66417,1.56722 -0.58452,0 -1.33922,-0.72042 -1.6771,-1.60092 z m 17.09288,-0.89239 c -2.04343,-2.04343 -2.29953,-2.85539 -1.41936,-4.5 0.79658,-1.48842 2.09302,-2.00669 5.01971,-2.00669 3.39152,0 4.03532,0.35683 4.58334,2.54029 0.43382,1.72848 0.0708,3.16657 -1.13594,4.5 -0.97543,1.07784 -2.39922,1.95971 -3.16397,1.95971 -0.76476,0 -2.51246,-1.12199 -3.88378,-2.49331 z m 18.63202,-1.95581 c -1.26546,-1.34701 -2.04616,-3.11276 -1.73491,-3.92389 0.31126,-0.81112 1.72384,-3.30902 3.13906,-5.55088 2.06603,-3.27279 3.15736,-4.07611 5.53754,-4.07611 2.035515,0 3.463155,0.76119 4.556085,2.42923 0.88767,1.35475 1.45076,3.88392 1.27306,5.71807 -0.23603,2.43616 -1.19961,3.88049 -3.71652,5.57078 -1.868835,1.25505 -4.152895,2.28192 -5.075685,2.28192 -0.92279,0 -2.71317,-1.1021 -3.97863,-2.44912 z m 7.752195,-3.75088 c 0.66,-0.66 1.2,-2.01 1.2,-3 0,-0.99 -0.65917,-1.8 -1.464815,-1.8 -0.80565,0 -1.95146,0.9093 -2.54624,2.02067 -0.59479,1.11136 -0.80906,2.46136 -0.47617,3 0.3329,0.53863 0.93871,0.97933 1.34625,0.97933 0.40754,0 1.28098,-0.54 1.940975,-1.2 z m -64.721045,3.61667 c 0.048,-1.16495 0.28494,-1.4019 0.60416,-0.60417 0.28887,0.72187 0.25335,1.58438 -0.0789,1.91667 -0.33229,0.33229 -0.56864,-0.25834 -0.52522,-1.3125 z m -6.07895,-1.35765 c 0,-0.51754 0.44485,-1.21592 0.98855,-1.55194 0.56686,-0.35034 0.7345,0.0511 0.39301,0.94098 -0.32755,0.85357 -0.77239,1.55194 -0.98855,1.55194 -0.21616,0 -0.39301,-0.42344 -0.39301,-0.94098 z m 10.66667,-11.72569 c -0.36667,-0.36666 -0.65299,-1.60416 -0.63626,-2.75 0.0277,-1.89531 0.12239,-1.9254 1.04969,-0.33333 0.5606,0.9625 1.92348,1.75 3.02861,1.75 1.10513,0 1.73121,0.45 1.39129,1 -0.33992,0.55 -1.41648,1 -2.39235,1 -0.97587,0 -2.07432,-0.3 -2.44098,-0.66667 z m 5.44933,-3.11555 c -0.0638,-0.70523 -1.1285,-1.67266 -2.366,-2.14984 -2.05449,-0.79223 -2.09209,-0.93131 -0.43278,-1.60056 0.99947,-0.40312 2.27917,-0.27099 2.84378,0.29362 0.56461,0.56461 0.81156,1.86186 0.54878,2.88278 -0.26278,1.02092 -0.52998,1.27922 -0.59378,0.574 z m 76.883995,-0.21778 c 0,-0.55 0.45,-1 1,-1 0.55,0 1,0.45 1,1 0,0.55 -0.45,1 -1,1 -0.55,0 -1,-0.45 -1,-1 z m -100.700335,-10 c 0,-3.025 0.18747,-4.2625 0.41659,-2.75 0.22913,1.5125 0.22913,3.9875 0,5.5 -0.22912,1.5125 -0.41659,0.275 -0.41659,-2.75 z m 13.70034,1.62244 c 0,-0.20765 0.7875,-0.99515 1.75,-1.75 1.58606,-1.24387 1.62143,-1.2085 0.37755,0.37756 -0.75484,0.9625 -1.54234,1.75 -1.75,1.75 -0.20765,0 -0.37755,-0.1699 -0.37755,-0.37756 z m 53.9416,-0.57067 c -1.40712,-0.42697 -3.54462,-1.30413 -4.75,-1.94923 -1.493,-0.79903 -2.1916,-2.11064 -2.1916,-4.11467 0,-2.02725 0.77016,-3.44639 2.47743,-4.56504 1.36258,-0.8928 4.06224,-1.9807 5.99924,-2.41757 2.80057,-0.63163 4.03395,-0.39145 6.02257,1.1728 1.37542,1.08191 2.50076,2.73191 2.50076,3.66668 0,0.93476 -1.38276,3.3771 -3.0728,5.42742 -1.69005,2.05031 -3.37755,3.68916 -3.75,3.64189 -0.37246,-0.0473 -1.82848,-0.4353 -3.2356,-0.86228 z m 3.71332,-6.5949 c 0.32569,-0.84872 0.31347,-1.82182 -0.0272,-2.16244 -0.34062,-0.34062 -1.77159,-0.0943 -3.17992,0.54738 -1.40834,0.64168 -2.28369,1.61478 -1.94521,2.16244 0.33847,0.54766 1.50297,0.99575 2.58777,0.99575 1.0848,0 2.23884,-0.69441 2.56452,-1.54313 z m -22.65492,-3.42549 c 0,-0.53273 0.675,-0.70959 1.5,-0.39301 0.825,0.31659 1.5,0.75246 1.5,0.96862 0,0.21615 -0.675,0.39301 -1.5,0.39301 -0.825,0 -1.5,-0.43588 -1.5,-0.96862 z m 2.74208,-4.11591 c -0.96686,-0.56304 -2.31686,-0.70834 -3,-0.32289 -0.93665,0.5285 -0.96307,0.39804 -0.10742,-0.53054 0.62407,-0.67725 2.16382,-1.08077 3.42168,-0.8967 1.25785,0.18406 2.47225,0.89716 2.69866,1.58466 0.22642,0.6875 0.0367,1.23632 -0.42167,1.21959 -0.45833,-0.0167 -1.62439,-0.49108 -2.59125,-1.05412 z m -51.74208,-23.91547 c 0,-1.98382 0.69783,-2.00076 86.249995,-2.0935 47.4375,-0.0514 88.36337,-0.17531 90.94637,-0.2753 3.41251,-0.13211 5.39447,-0.83763 7.25,-2.58082 l 2.55363,-2.39901 v -27.69083 c 0,-26.49986 -0.0891,-27.80415 -2.07258,-30.32568 l -2.07258,-2.63486 H 112.87862 21.451205 v -2.5 -2.5 h 90.549655 c 78.12379,0 90.94371,0.20377 93.42116,1.48491 1.57933,0.8167 3.80698,2.79867 4.95034,4.40437 1.98879,2.793 2.07884,4.16026 2.07884,31.56475 0,23.64869 -0.2646,29.15697 -1.51693,31.5787 -0.83431,1.61338 -2.83696,3.61603 -4.45034,4.45034 -2.55901,1.32332 -14.55434,1.51693 -93.98307,1.51693 -90.382985,0 -91.049655,-0.0146 -91.049655,-2 z M 193.08624,223.60411 c -0.31841,-0.82978 -0.16932,-2.58607 0.33133,-3.90286 0.50064,-1.3168 1.4136,-2.70526 2.02878,-3.08546 0.61519,-0.38021 2.21794,-0.41535 3.56169,-0.0781 1.46305,0.3672 2.44316,1.33795 2.44316,2.41983 0,0.99365 -1.0415,2.78507 -2.31445,3.98095 -1.27295,1.19587 -3.0248,2.17431 -3.89301,2.17431 -0.86821,0 -1.83908,-0.67891 -2.1575,-1.50868 z m 4.43996,-2.76632 c -0.0412,-0.39875 -0.40125,-0.75875 -0.8,-0.8 -0.39875,-0.0413 -0.905,0.465 -1.125,1.125 -0.22,0.66 0.14,1.02 0.8,0.8 0.66,-0.22 1.16625,-0.72625 1.125,-1.125 z M 67.451715,217.6134 c -1.07427,-1.29441 -0.8176,-1.41403 1.87755,-0.875 2.49121,0.49824 3.12194,0.28958 3.12194,-1.03283 0,-0.91148 -0.97694,-2.01862 -2.17097,-2.46032 -1.50585,-0.55705 -1.79755,-1.03388 -0.95211,-1.55639 0.67037,-0.41431 1.8723,-0.50254 2.67097,-0.19607 0.79866,0.30648 1.45211,1.60635 1.45211,2.88862 0,1.28226 -0.54,2.87138 -1.2,3.53138 -0.66,0.66 -1.7299,1.2 -2.37756,1.2 -0.64765,0 -1.73752,-0.67472 -2.42193,-1.49939 z m -22.92793,-4.13547 c -1.13992,-1.44917 -2.06868,-2.91167 -2.06391,-3.25 0.005,-0.33833 1.6399,-2.33633 3.63362,-4.44001 2.81357,-2.96875 4.14474,-3.69441 5.94722,-3.24202 1.27726,0.32057 3.47866,1.02251 4.89201,1.55986 1.41335,0.53736 2.83173,1.65977 3.15195,2.49426 0.32022,0.83448 0.31279,2.59073 -0.0165,3.90278 -0.40012,1.59423 -1.93531,2.92033 -4.62808,3.99776 -2.21615,0.88673 -5.11259,1.61223 -6.43654,1.61223 -1.40945,0 -3.26623,-1.0921 -4.47976,-2.63486 z m 9.48127,-3.45227 c 0.36954,-0.59793 0.15871,-1.60031 -0.46851,-2.22753 -0.8089,-0.8089 -1.62377,-0.83548 -2.80335,-0.0914 -0.91462,0.57693 -1.83974,1.57932 -2.0558,2.22752 -0.23242,0.69722 0.63806,1.17854 2.13146,1.17854 1.38837,0 2.82666,-0.48921 3.1962,-1.08713 z m 73.445095,4.14677 c -1.92557,-1.01859 -4.40057,-2.84611 -5.5,-4.06117 -1.51314,-1.67228 -1.94733,-3.40735 -1.78654,-7.13925 0.11683,-2.71153 0.79592,-6.14752 1.50911,-7.63553 0.71318,-1.48801 2.6426,-3.36166 4.28759,-4.16368 1.64499,-0.80201 5.53003,-1.48111 8.63342,-1.50911 4.26871,-0.0385 6.17576,0.43111 7.83256,1.9288 1.20451,1.08883 2.82787,3.50629 3.60746,5.37212 0.7796,1.86584 1.41745,4.75176 1.41745,6.41316 0,2.2797 -1.19153,4.21227 -4.85714,7.87788 -3.94244,3.94244 -5.49609,4.84882 -8.25,4.81294 -1.86607,-0.0243 -4.96833,-0.87758 -6.89391,-1.89616 z m 12.22896,-6.05225 c 3.37035,-3.37035 3.88695,-4.42237 3.31463,-6.75 -0.37289,-1.51657 -1.37153,-3.82887 -2.2192,-5.13846 -1.43302,-2.21392 -1.96923,-2.33633 -7.6385,-1.74378 -3.3535,0.35051 -6.50189,1.0419 -6.9964,1.53641 -0.49452,0.49452 -0.96422,3.27891 -1.04378,6.18754 -0.14156,5.17501 -0.0589,5.33752 3.85534,7.57821 2.2,1.25938 4.61544,2.29719 5.36765,2.30624 0.7522,0.009 3.16432,-1.78023 5.36026,-3.97616 z m -31.01734,-0.40653 c 0.70919,-0.76953 1.44699,-1.24947 1.63957,-1.06653 0.19257,0.18293 0.0535,0.81255 -0.30902,1.39914 -0.36254,0.58659 -1.10034,1.06653 -1.63956,1.06653 -0.53923,0 -0.40017,-0.62961 0.30901,-1.39914 z m 53.17008,-3.51045 c -1.71565,-1.04616 -3.62815,-3.36163 -4.25,-5.14548 -0.62186,-1.78386 -1.13065,-4.75123 -1.13065,-6.59415 0,-2.00442 0.79435,-4.14513 1.97695,-5.32773 1.08732,-1.08732 3.66959,-2.68418 5.73838,-3.54858 2.06879,-0.86439 4.66802,-1.34409 5.77605,-1.06599 1.10804,0.2781 3.47576,2.40676 5.26162,4.73036 1.78585,2.3236 3.247,5.0851 3.247,6.13667 0,1.05157 -1.45513,4.34477 -3.23363,7.31822 -2.93431,4.90583 -3.55913,5.40592 -6.75,5.40253 -1.934,-0.002 -4.92008,-0.85969 -6.63572,-1.90585 z m 8.07123,-3.68515 c 0.87711,-0.87711 2.25535,-2.87222 3.06276,-4.43358 1.37664,-2.66212 1.30741,-3.02971 -1.1122,-5.90526 -1.41913,-1.68653 -3.3401,-3.06642 -4.26883,-3.06642 -0.92873,0 -2.68873,0.70052 -3.9111,1.5567 -1.72555,1.20862 -2.22251,2.54311 -2.22251,5.96807 0,3.78405 0.39106,4.62351 2.75,5.90326 1.5125,0.82054 3.05536,1.50991 3.42857,1.53193 0.37322,0.022 1.39621,-0.67759 2.27331,-1.5547 z m 26.54812,-0.90526 c 0,-0.825 0.45,-1.5 1,-1.5 0.55,0 1,0.675 1,1.5 0,0.825 -0.45,1.5 -1,1.5 -0.55,0 -1,-0.675 -1,-1.5 z m -99.914055,-3.75 c -0.46728,-1.2375 -0.46703,-2.98129 5.6e-4,-3.87509 0.46759,-0.8938 1.7703,-1.86571 2.89492,-2.1598 1.349645,-0.35294 2.380245,0.0922 3.031665,1.30935 0.5428,1.01423 0.98691,2.32364 0.98691,2.9098 0,0.58616 -0.93011,0.13563 -2.06691,-1.00117 -1.705325,-1.70533 -2.333405,-1.84574 -3.590295,-0.80262 -1.35556,1.12502 -1.33196,1.40428 0.21423,2.53488 0.95569,0.69882 2.121325,1.03344 2.590295,0.7436 0.46897,-0.28984 0.85268,-0.0986 0.85268,0.42504 0,0.52362 -0.7118,1.22518 -1.581785,1.55902 -0.86998,0.33385 -1.78448,0.60699 -2.03222,0.60699 -0.24774,0 -0.83276,-1.0125 -1.30005,-2.25 z m -54.82714,-5.52384 c -1.23267,-0.19963 -2.92017,-1.33231 -3.75,-2.51706 -0.82984,-1.18476 -1.49449,-3.29148 -1.477,-4.68161 0.0175,-1.39012 0.58898,-3.20249 1.26997,-4.02749 0.681,-0.825 2.23558,-2.0625 3.45463,-2.75 1.21905,-0.6875 3.27782,-1.25 4.57504,-1.25 1.29722,0 3.10333,0.82293 4.01357,1.82874 0.91025,1.00581 1.65499,2.38818 1.65499,3.07193 0,0.68375 -1.14377,3.19488 -2.5417,5.58027 -1.39794,2.3854 -3.08544,4.51058 -3.75,4.72263 -0.66457,0.21205 -2.21684,0.22222 -3.4495,0.0226 z m 3.11507,-6.67401 c 0.88215,-1.34632 1.19951,-2.69778 0.70526,-3.00325 -0.49426,-0.30546 -1.61426,-0.28078 -2.48889,0.0548 -0.87463,0.33567 -1.59024,1.68713 -1.59024,3.00329 0,1.31615 0.39825,2.39301 0.88499,2.39301 0.48674,0 1.60674,-1.10153 2.48888,-2.44785 z m 149.190415,2.15472 c 0.37553,-0.98622 0.93469,-1.54122 1.24258,-1.23333 0.30789,0.30789 6.4e-4,1.11479 -0.68278,1.79313 -0.98762,0.98026 -1.10248,0.8654 -0.5598,-0.5598 z m -6.02158,-0.63777 c -0.31644,-0.512 -0.11799,-1.21356 0.44098,-1.55902 0.55897,-0.34546 1.01631,0.0734 1.01631,0.9309 0,0.85746 -0.19844,1.55902 -0.44098,1.55902 -0.24254,0 -0.69988,-0.41891 -1.01631,-0.9309 z M 60.249935,179.5704 c -0.98891,-2.17043 -0.85278,-2.84801 0.93046,-4.63124 1.53783,-1.53784 2.78129,-1.91506 4.71384,-1.43002 1.44374,0.36235 3.12584,1.75808 3.738,3.10162 0.84623,1.85727 0.80872,2.80945 -0.15645,3.97242 -0.69821,0.84128 -2.79902,1.52961 -4.66846,1.52961 -2.67029,0 -3.64734,-0.54506 -4.55739,-2.54239 z m 50.765555,0.24926 c 0.37553,-0.98622 0.93469,-1.54122 1.24258,-1.23333 0.30789,0.30789 6.4e-4,1.11479 -0.68278,1.79313 -0.98762,0.98026 -1.10248,0.8654 -0.5598,-0.5598 z m -5.54898,-1.89785 c -0.008,-0.93004 0.43469,-1.9691 0.98469,-2.30902 0.55,-0.33992 0.99311,-0.25398 0.98469,0.19098 -0.008,0.44496 -0.45153,1.48402 -0.98469,2.30902 -0.8354,1.29269 -0.97149,1.26629 -0.98469,-0.19098 z m -23.015305,-2.80902 c 0,-1.1 0.6,-2 1.33333,-2 0.73334,0 1.60233,0.26899 1.9311,0.59777 0.32877,0.32877 0.35563,1.22877 0.0597,2 -0.29595,0.77122 -1.16494,1.40223 -1.9311,1.40223 -0.76616,0 -1.39301,-0.9 -1.39301,-2 z m -60.33333,-17.66667 c -0.36667,-0.36666 -0.66667,-1.49166 -0.66667,-2.5 0,-1.757 2.44991,-1.83333 58.84699,-1.83333 58.203375,0 58.873265,-0.0228 61.249995,-2.08412 l 2.40301,-2.08412 v -28.8881 c 0,-28.727126 -0.0127,-28.900786 -2.27729,-31.165876 l -2.27729,-2.27778 -58.972705,-0.27322 c -57.98291,-0.26865 -58.97271,-0.30641 -58.97271,-2.25 0,-1.94689 0.89978,-1.97678 59.51468,-1.97678 h 59.514685 l 3.73532,3.42187 3.73531,3.42187 0.26995,29.828126 c 0.25827,28.53742 0.1816,29.97137 -1.7719,33.13831 -1.12301,1.82059 -3.59254,3.95809 -5.48783,4.75 -2.86319,1.19631 -13.14771,1.43982 -60.811435,1.43982 -31.55099,0 -57.66545,-0.3 -58.03211,-0.66667 z m 136.367345,-1.08488 c -1.90629,-0.96165 -4.38129,-3.32345 -5.5,-5.24845 -1.9136,-3.29278 -2.03402,-5.15773 -2.03402,-31.5 0,-26.342266 0.12042,-28.207206 2.03402,-31.499996 1.11871,-1.925 3.59371,-4.2868 5.5,-5.24844 2.95657,-1.49147 6.42025,-1.74868 23.56676,-1.75 11.78261,-9.1e-4 21.37915,0.44409 23.18996,1.07534 1.69905,0.59229 4.2412,2.58727 5.64922,4.43328 l 2.56004,3.35638 V 119.6417 c 0,28.43441 -0.0861,29.78321 -2.07884,32.58181 -1.14336,1.6057 -3.37101,3.58767 -4.95034,4.40437 -2.26978,1.17375 -7.23004,1.48458 -23.67116,1.48336 -17.81188,-0.001 -21.29753,-0.25271 -24.26564,-1.75 z M 204.1343,152.5 c 1.20071,-0.32202 2.91497,-2.12777 3.80946,-4.01278 1.40338,-2.9574 1.58393,-7.1376 1.3169,-30.48892 l -0.30946,-27.061606 -2.80576,-2.41195 c -2.77179,-2.38274 -3.05874,-2.41195 -23.69424,-2.41195 -20.63949,0 -20.92192,0.0288 -23.69424,2.41342 l -2.80576,2.41342 v 28.506006 28.50602 l 2.42431,2.58057 2.42432,2.58056 20.57568,-0.0137 c 11.31663,-0.008 21.55809,-0.27713 22.75879,-0.59914 z m -23.6831,-33.88721 c 0,-0.825 0.45,-1.5 1,-1.5 0.55,0 1,0.675 1,1.5 0,0.825 -0.45,1.5 -1,1.5 -0.55,0 -1,-0.675 -1,-1.5 z m 6.07414,-7.45418 c -0.7317,-0.45222 -1.02116,-1.32252 -0.64324,-1.93402 0.37792,-0.61149 1.33558,-1.1118 2.12812,-1.1118 0.79254,0 1.44098,0.64844 1.44098,1.44098 0,0.79254 -0.35899,1.66285 -0.79775,1.93402 -0.43876,0.27117 -1.39641,0.12304 -2.12811,-0.32918 z M 174.64287,101.0378 c 0.19708,-0.59125 0.78583,-1.075002 1.30833,-1.075002 0.5225,0 1.11125,0.483752 1.30833,1.075002 0.19709,0.59125 -0.39166,1.075 -1.30833,1.075 -0.91667,0 -1.50542,-0.48375 -1.30833,-1.075 z M 65.433435,144.07958 c -0.63376,-1.18419 -0.89291,-3.18652 -0.57589,-4.44963 0.31702,-1.26311 1.21188,-2.54041 1.98858,-2.83846 0.77669,-0.29805 2.3605,-0.29391 3.51957,0.009 1.16911,0.30573 2.39069,1.67988 2.7437,3.08638 0.34998,1.39441 0.18717,3.25313 -0.3618,4.13051 -0.54896,0.87737 -2.15996,1.73469 -3.57999,1.90515 -1.81983,0.21846 -2.92199,-0.32556 -3.73417,-1.84314 z m 5.01777,-2.96679 c 0,-0.55 -0.45,-1 -1,-1 -0.55,0 -1,0.45 -1,1 0,0.55 0.45,1 1,1 0.55,0 1,-0.45 1,-1 z m -41,2.94098 c 0,-0.58246 0.45,-0.7809 1,-0.44098 0.55,0.33992 1,0.81648 1,1.05902 0,0.24254 -0.45,0.44098 -1,0.44098 -0.55,0 -1,-0.47656 -1,-1.05902 z m 89.199995,-3.14098 c -0.66,-0.66 -1.17148,-1.8975 -1.13661,-2.75 0.0389,-0.9508 0.413,-0.6802 0.96777,0.7 0.49742,1.2375 1.53879,2.25 2.31417,2.25 0.77538,0 1.91098,-0.6039 2.52355,-1.34201 0.61257,-0.7381 0.81767,-1.6381 0.45578,-2 -0.3619,-0.36189 -0.13299,-0.65799 0.50867,-0.65799 0.64167,0 1.16667,0.41786 1.16667,0.92857 0,0.51072 -0.70714,1.63572 -1.57143,2.5 -0.86428,0.86429 -2.12428,1.57143 -2.8,1.57143 -0.67571,0 -1.76857,-0.54 -2.42857,-1.2 z m -77.135815,-2.92644 c -1.13119,-1.85546 -2.05839,-4.08262 -2.06044,-4.94925 -0.002,-0.86662 1.03776,-2.55412 2.31071,-3.75 1.27295,-1.19587 3.01799,-2.17431 3.87788,-2.17431 0.85988,0 3.19338,0.68104 5.18555,1.51342 3.27681,1.36914 3.62212,1.8818 3.62212,5.37756 0,2.16872 -0.64093,4.39605 -1.46078,5.07647 -0.80343,0.66679 -3.25123,1.45249 -5.43956,1.74601 -3.6837,0.49409 -4.1313,0.28348 -6.03548,-2.8399 z m 8.72569,-3.75285 c -0.17453,-0.92146 -1.48977,-1.75723 -3.04842,-1.93713 -1.80545,-0.20839 -2.74145,0.15011 -2.74145,1.05 0,0.75153 0.48795,1.85437 1.08433,2.45075 0.59638,0.59638 1.96817,0.8532 3.04842,0.5707 1.13281,-0.29623 1.83417,-1.19957 1.65712,-2.13432 z m -21.78987,-0.53738 c 0,-0.87083 0.7125,-1.58333 1.58333,-1.58333 0.87084,0 1.40521,0.53437 1.1875,1.1875 -0.21771,0.65312 -0.93021,1.36562 -1.58333,1.58333 -0.65313,0.21771 -1.1875,-0.31666 -1.1875,-1.1875 z m 74.499995,-2.23055 c -1.65,-0.86193 -3.562495,-2.27992 -4.249995,-3.15109 -0.6875,-0.87117 -1.25,-3.0934 -1.25,-4.93827 0,-2.22805 0.82416,-4.17849 2.45454,-5.80887 1.473815,-1.47382 3.609455,-2.45455 5.345015,-2.45455 1.58975,0 3.54049,0.7875 4.33497,1.75 0.79447,0.9625 2.21783,3.46034 3.16301,5.55075 1.26162,2.79029 1.44846,4.30534 0.70275,5.69872 -0.55867,1.04388 -2.01241,2.59604 -3.23053,3.44925 -1.21813,0.8532 -2.67714,1.53326 -3.24227,1.51124 -0.56512,-0.022 -2.37749,-0.74525 -4.02749,-1.60718 z m 5.5,-5.742 c 0,-1.31406 -0.81331,-3.39361 -1.80736,-4.62121 -1.69796,-2.09689 -1.90981,-2.12954 -3.5,-0.53935 -0.93095,0.93095 -1.69264,2.11049 -1.69264,2.62121 0,0.51071 0.9,1.82857 2,2.92857 1.1,1.1 2.675,2 3.5,2 0.91479,0 1.5,-0.93214 1.5,-2.38922 z m -21.999995,3.38922 c 0,-0.55 0.45,-1 1,-1 0.55,0 1,0.45 1,1 0,0.55 -0.45,1 -1,1 -0.55,0 -1,-0.45 -1,-1 z m -16.57237,-7.30859 c -1.96614,-1.6912 -2.50706,-2.86578 -2.02265,-4.39203 0.36369,-1.14589 1.62445,-2.33532 2.80168,-2.64317 1.17723,-0.30786 2.49567,-0.34018 2.92985,-0.0718 0.43419,0.26834 1.24538,2.1392 1.80265,4.15746 0.7556,2.73656 0.70145,3.86763 -0.21297,4.44856 -0.67441,0.42844 -1.5386,0.78588 -1.92043,0.7943 -0.38183,0.008 -1.90199,-1.02356 -3.37813,-2.29328 z m 3.32223,-3.27488 c -0.33924,-0.33924 -1.10408,-0.31565 -1.69964,0.0524 -0.59556,0.36808 -0.79971,1.12735 -0.45366,1.68727 0.42211,0.683 0.98146,0.66575 1.69964,-0.0524 0.58876,-0.58876 0.79291,-1.34803 0.45366,-1.68727 z m -51.54555,-3.16653 0.29569,-6.75 3.98592,0.32272 c 2.19226,0.17749 4.3345,0.85249 4.76052,1.5 0.42603,0.6475 0.65736,2.51291 0.51408,4.14536 -0.18434,2.10012 -1.25417,3.63538 -3.6584,5.25 -1.86884,1.25505 -4.0269,2.28192 -4.79569,2.28192 -1.08823,0 -1.33232,-1.49497 -1.10212,-6.75 z m 4.79569,-0.75 c 0,-0.825 -0.675,-1.5 -1.5,-1.5 -0.825,0 -1.5,0.675 -1.5,1.5 0,0.825 0.675,1.5 1.5,1.5 0.825,0 1.5,-0.675 1.5,-1.5 z m 97.570025,1.61331 c -0.30141,-0.48768 0.13291,-1.45181 0.96515,-2.1425 0.83223,-0.6907 1.78287,-0.98609 2.11252,-0.65644 0.32966,0.32966 0.33291,1.29378 0.007,2.1425 -0.32546,0.84872 -1.0295,1.54313 -1.5643,1.54313 -0.5348,0 -1.21897,-0.39901 -1.52037,-0.88669 z m -85.570025,-6.11331 c 0,-0.55 0.45,-1 1,-1 0.55,0 1,0.45 1,1 0,0.55 -0.45,1 -1,1 -0.55,0 -1,-0.45 -1,-1 z m 51.47608,-7.07535 c -0.36228,-1.14145 -0.39261,-2.34145 -0.0674,-2.66666 0.32522,-0.32522 0.59131,0.13633 0.59131,1.02566 0,0.88934 0.7875,2.07565 1.75,2.63625 1.59631,0.92977 1.60223,1.02195 0.0674,1.04969 -0.92544,0.0167 -1.97903,-0.9035 -2.34131,-2.04494 z m 26.523915,0.57535 c 0,-0.82499 0.45,-1.49999 1,-1.49999 0.55,0 1,0.675 1,1.49999 0,0.825 -0.45,1.5 -1,1.5 -0.55,0 -1,-0.675 -1,-1.5 z m -68.333325,-1.16666 c -0.36667,-0.36666 -0.66667,-1.86943 -0.66667,-3.339482 0,-1.901334 0.74324,-3.011464 2.57494,-3.846044 1.41621,-0.64527 2.99121,-0.91594 3.5,-0.60149 0.50878,0.31444 0.92506,1.22873 0.92506,2.03175 0,1.05803 -0.68835,1.287274 -2.5,0.83258 -1.89052,-0.47449 -2.5,-0.23535 -2.5,0.980954 0,0.88462 0.66088,1.608402 1.46861,1.608402 0.8946,0 1.24364,0.58629 0.89302,1.5 -0.31659,0.825 -1.12746,1.5 -1.80195,1.5 -0.67449,0 -1.52635,-0.3 -1.89301,-0.66667 z m 45.14583,-4.016442 c 0.72187,-0.28887 1.58437,-0.25334 1.91667,0.0789 0.33229,0.33229 -0.25834,0.56864 -1.3125,0.52522 -1.16495,-0.048 -1.4019,-0.28494 -0.60417,-0.60417 z m -57.11865,-0.956374 c -0.35171,-0.35171 -0.4123,-1.00706 -0.13464,-1.45632 0.27766,-0.44927 1.16284,-0.56435 1.96707,-0.25574 0.80423,0.30861 1.21326,0.96396 0.90896,1.45633 -0.3043,0.49237 -0.90172,0.895214 -1.32759,0.895214 -0.42587,0 -1.06208,-0.28776 -1.4138,-0.639484 z m 29.30615,-1.77718 c 0,-0.87084 0.7125,-1.58334 1.58333,-1.58334 0.87084,0 1.40521,0.53438 1.1875,1.1875 -0.21771,0.65313 -0.93021,1.36563 -1.58333,1.58334 -0.65313,0.21771 -1.1875,-0.31667 -1.1875,-1.1875 z"
       id="path1" />
  </g>
</svg>
